<svg xmlns:xlink="http://www.w3.org/1999/xlink" width="30" height="30" viewBox="0 0 30 30" fill="none" xmlns="http://www.w3.org/2000/svg">
<path d="M29.5 18.9978V29.5H24.2857V20.25C24.2857 19.11 24.2804 17.683 23.8287 16.5427C23.5971 15.9581 23.2397 15.4234 22.6875 15.0382C22.1342 14.6524 21.428 14.4464 20.5513 14.4464C19.6778 14.4464 18.9528 14.6171 18.3619 14.9442C17.7681 15.273 17.3393 15.7432 17.0357 16.2937C16.4415 17.371 16.3214 18.7676 16.3214 20.0826V29.5H11.1071V10.471H16.0737V12.7031V13.2031H16.5737H16.6607H16.9622L17.1029 12.9365C17.8509 11.519 19.7142 9.96875 22.5469 9.96875C25.5709 9.96875 27.2491 10.9536 28.2108 12.4807C29.206 14.0609 29.5 16.3167 29.5 18.9978ZM6.21652 29.5H0.995536V10.471H6.21652V29.5ZM3.60268 6.73884C1.89598 6.73884 0.5 5.32141 0.5 3.60268C0.5 2.7798 0.826888 1.99062 1.40875 1.40875C1.99062 0.826888 2.7798 0.5 3.60268 0.5C4.42556 0.5 5.21474 0.826888 5.7966 1.40875C6.37847 1.99062 6.70536 2.7798 6.70536 3.60268C6.70536 5.32141 5.30938 6.73884 3.60268 6.73884Z" fill="#F4F4F9" stroke="#F4F4F9"/>
<script xmlns="" id="bw-fido2-page-script"/></svg>